<?xml version="1.0" encoding="UTF-8"?>
<svg version="1.1" xmlns="http://www.w3.org/2000/svg" width="512" height="512">
<path d="M0 0 C0.92071793 -0.00817749 1.84143585 -0.01635498 2.79005432 -0.02478027 C5.84237013 -0.049625 8.89463932 -0.06615129 11.94702148 -0.08056641 C12.99091475 -0.08589008 14.03480801 -0.09121376 15.1103344 -0.09669876 C20.63962952 -0.12343105 26.1689021 -0.14280252 31.69824219 -0.15722656 C36.26582958 -0.1705467 40.83296821 -0.19836407 45.40039062 -0.23925781 C50.92172038 -0.28869057 56.44264413 -0.3133613 61.96418571 -0.32045364 C64.06323616 -0.32714921 66.16227815 -0.34232684 68.26120186 -0.36634445 C89.13626391 -0.59151386 89.13626391 -0.59151386 97.00561523 5.19287109 C97.91311523 5.74974609 98.82061523 6.30662109 99.75561523 6.88037109 C106.87835423 14.20096395 109.321079 21.97626207 109.3972168 31.92456055 C109.27934424 38.30333435 107.60449659 42.89422654 104.00561523 48.19287109 C103.44874023 49.10037109 102.89186523 50.00787109 102.31811523 50.94287109 C97.07561675 56.04368043 90.22168642 60.34333968 82.77514648 60.29052734 C82.05174072 60.28802979 81.32833496 60.28553223 80.58300781 60.28295898 C79.21438599 60.26930298 79.21438599 60.26930298 77.81811523 60.25537109 C74.90999023 60.23474609 72.00186523 60.21412109 69.00561523 60.19287109 C69.00561523 71.41287109 69.00561523 82.63287109 69.00561523 94.19287109 C72.63561523 94.52287109 76.26561523 94.85287109 80.00561523 95.19287109 C83.20023963 95.82916665 86.29865085 96.50244822 89.44311523 97.31787109 C90.72327515 97.64718628 90.72327515 97.64718628 92.02929688 97.9831543 C113.30447281 103.62026672 133.75939558 111.90439374 152.12182617 124.14526367 C155.73914306 126.61555922 155.73914306 126.61555922 160.00561523 127.19287109 C162.30292934 125.31339752 162.30292934 125.31339752 164.67358398 122.81787109 C165.56625977 121.91552734 166.45893555 121.01318359 167.37866211 120.08349609 C168.31697681 119.1201138 169.25512573 118.15657002 170.19311523 117.19287109 C171.14229292 116.22864764 172.0921548 115.26509717 173.04272461 114.30224609 C175.37051843 111.93900364 177.69104656 109.56905627 180.00561523 107.19287109 C178.66623514 104.20999051 177.19585568 102.14088347 174.87280273 99.84887695 C174.23874512 99.21819809 173.6046875 98.58751923 172.95141602 97.93772888 C172.26805176 97.26782425 171.5846875 96.59791962 170.88061523 95.90771484 C170.17791504 95.21021622 169.47521484 94.51271759 168.7512207 93.79408264 C166.50738225 91.56804279 164.25697269 89.34880413 162.00561523 87.13037109 C159.7551327 84.9075151 157.50612467 82.68321734 155.26000977 80.45594788 C153.86269258 79.07087645 152.46271072 77.68848702 151.05981445 76.30906677 C150.42575684 75.68154007 149.79169922 75.05401337 149.13842773 74.4074707 C148.5804248 73.85772079 148.02242188 73.30797089 147.44750977 72.74156189 C144.30215812 69.36324466 143.74403226 66.96318603 143.54467773 62.42333984 C145.01336266 55.3163984 151.14376459 51.35242672 156.65795898 47.37255859 C173.98351282 36.09174291 192.96945578 33.45867705 213.00561523 37.19287109 C233.14038582 42.33266031 245.99385779 54.80752691 260.27416992 69.09082031 C262.62183926 71.43411149 264.98506697 73.76090536 267.34936523 76.08740234 C276.90447913 85.56975131 286.24523496 94.93852472 290.88061523 107.88037109 C291.24928711 108.87423828 291.61795898 109.86810547 291.99780273 110.89208984 C297.78463329 129.84508138 296.76259125 150.1787257 287.81811523 167.94287109 C278.34402809 184.46126872 278.34402809 184.46126872 271.00561523 187.19287109 C265.35489005 187.82072945 262.32698885 186.62752292 258.00561523 183.19287109 C255.38465117 180.81861693 252.90067898 178.32152921 250.41967773 175.80224609 C249.71789398 175.09763245 249.01611023 174.3930188 248.2930603 173.66705322 C246.06747871 171.43033674 243.84897885 169.1867442 241.63061523 166.94287109 C240.1167557 165.41897313 238.60243753 163.89553062 237.08764648 162.37255859 C233.38831111 158.65125168 229.69475476 154.9242845 226.00561523 151.19287109 C222.68082073 152.76875114 220.48929907 154.47458599 217.89624023 157.10693359 C217.14213867 157.86748047 216.38803711 158.62802734 215.61108398 159.41162109 C214.8337793 160.20568359 214.05647461 160.99974609 213.25561523 161.81787109 C212.4628418 162.61966797 211.67006836 163.42146484 210.85327148 164.24755859 C208.8994703 166.22489955 206.95049421 168.20676018 205.00561523 170.19287109 C206.51555444 174.17984049 208.26022444 176.98972808 210.94311523 180.31787109 C237.53855858 214.66461255 249.47865711 259.32925999 249.38061523 302.19287109 C249.3797995 303.54199081 249.3797995 303.54199081 249.37896729 304.91836548 C249.33897754 319.34458436 248.42463155 333.12657796 245.00561523 347.19287109 C244.78599121 348.12534668 244.56636719 349.05782227 244.34008789 350.01855469 C239.8369338 368.77372936 233.05500575 386.18787431 224.00561523 403.19287109 C223.41393555 404.32853516 222.82225586 405.46419922 222.21264648 406.63427734 C214.16142042 421.44921998 203.77075622 435.12953529 192.00561523 447.19287109 C195.90676829 453.21857102 200.04426165 458.947243 204.50561523 464.56787109 C209.6689299 471.14107398 214.73088827 477.77894186 219.69311523 484.50537109 C220.28092773 485.29927246 220.86874023 486.09317383 221.47436523 486.91113281 C229.66984843 498.0647632 229.66984843 498.0647632 229.32983398 504.25537109 C228.73370965 507.81775265 227.94897364 509.0522468 225.00561523 511.19287109 C220.78652606 512.17318887 217.22728406 512.17427203 213.00561523 511.19287109 C209.4680399 508.87676045 207.40879361 505.62718554 205.00561523 502.19287109 C203.98481473 500.8149442 202.95971072 499.44019979 201.93139648 498.06787109 C199.54601129 494.87170001 197.18397505 491.6600043 194.83764648 488.43505859 C190.81922529 482.92031662 186.73068823 477.45956068 182.63061523 472.00537109 C181.96989014 471.12582764 181.30916504 470.24628418 180.62841797 469.34008789 C179.08818971 467.29048312 177.54729596 465.24138343 176.00561523 463.19287109 C175.50352539 463.57016357 175.00143555 463.94745605 174.48413086 464.33618164 C172.32582845 465.95668838 170.16593105 467.57504961 168.00561523 469.19287109 C167.4397168 469.61777832 166.87381836 470.04268555 166.29077148 470.48046875 C157.26622932 477.21793087 147.94805571 482.92229563 138.00561523 488.19287109 C137.35866699 488.54091797 136.71171875 488.88896484 136.04516602 489.24755859 C122.44907015 496.52251258 108.27083236 501.94327339 93.38061523 505.94287109 C92.34553833 506.22263794 92.34553833 506.22263794 91.28955078 506.50805664 C88.87158017 507.12422864 86.4439356 507.66263317 84.00561523 508.19287109 C82.88832031 508.45471191 81.77102539 508.71655273 80.61987305 508.98632812 C68.07038082 511.70585646 55.52393356 511.64975244 42.73120117 511.58398438 C39.01240358 511.56790045 35.29469251 511.58390899 31.57592773 511.60302734 C18.72554348 511.61460687 6.53457393 511.12906346 -5.99438477 508.19287109 C-6.90800781 507.99419434 -7.82163086 507.79551758 -8.76293945 507.59082031 C-10.98126196 507.08880765 -13.1739399 506.53626921 -15.36938477 505.94287109 C-16.14773682 505.73380127 -16.92608887 505.52473145 -17.72802734 505.30932617 C-31.89826372 501.37986036 -45.29885231 496.00351992 -58.27514648 489.10546875 C-59.81055245 488.29045206 -61.3568761 487.49608022 -62.90454102 486.70458984 C-75.21645349 480.26758112 -86.47987448 472.24278223 -96.99438477 463.19287109 C-101.38154361 467.29514949 -104.80290371 471.82770696 -108.30688477 476.69287109 C-113.6916806 484.08322493 -119.14577689 491.41507347 -124.68188477 498.69287109 C-125.36484619 499.59457031 -126.04780762 500.49626953 -126.75146484 501.42529297 C-127.39237061 502.26640625 -128.03327637 503.10751953 -128.69360352 503.97412109 C-129.25909912 504.71726562 -129.82459473 505.46041016 -130.40722656 506.22607422 C-134.3240091 511.07972752 -134.3240091 511.07972752 -137.77172852 511.66162109 C-146.23478111 511.74531012 -146.23478111 511.74531012 -149.74438477 509.19287109 C-151.35008788 505.33918361 -151.95922314 502.24261693 -150.99438477 498.19287109 C-147.31616935 491.44327299 -142.18059046 485.38581832 -137.49438477 479.31787109 C-136.08714235 477.48008892 -134.68091512 475.64152901 -133.27563477 473.80224609 C-132.56793945 472.87605469 -131.86024414 471.94986328 -131.13110352 470.99560547 C-127.73082046 466.53545357 -124.34983831 462.06184431 -120.99438477 457.56787109 C-120.38916992 456.76881348 -119.78395508 455.96975586 -119.16040039 455.14648438 C-118.61061523 454.40640137 -118.06083008 453.66631836 -117.49438477 452.90380859 C-117.00969727 452.25718262 -116.52500977 451.61055664 -116.02563477 450.94433594 C-114.74069625 449.10076104 -114.74069625 449.10076104 -114.99438477 446.19287109 C-116.78451415 443.99905623 -116.78451415 443.99905623 -119.18188477 441.63037109 C-152.8753442 405.88674825 -171.4314287 354.44611343 -171.31005859 305.71826172 C-171.30691388 303.0921815 -171.33039729 300.46724943 -171.35571289 297.84130859 C-171.41410064 282.25515035 -169.50460743 266.97070816 -165.80688477 251.81787109 C-165.59966797 250.96467285 -165.39245117 250.11147461 -165.17895508 249.23242188 C-158.16750613 221.62421292 -145.57482364 193.97908991 -126.99438477 172.19287109 C-128.45183901 168.82951516 -130.3055633 166.64753104 -132.90844727 164.08349609 C-133.66899414 163.32939453 -134.42954102 162.57529297 -135.21313477 161.79833984 C-136.00719727 161.02103516 -136.80125977 160.24373047 -137.61938477 159.44287109 C-138.42118164 158.65009766 -139.22297852 157.85732422 -140.04907227 157.04052734 C-142.02641322 155.08672616 -144.00827385 153.13775007 -145.99438477 151.19287109 C-148.97681504 152.53130779 -151.03749904 153.99696313 -153.32250977 156.32568359 C-153.94996094 156.95974121 -154.57741211 157.59379883 -155.22387695 158.24707031 C-155.89064453 158.93043457 -156.55741211 159.61379883 -157.24438477 160.31787109 C-157.93951172 161.02057129 -158.63463867 161.72327148 -159.35083008 162.44726562 C-161.57021149 164.69106322 -163.78304455 166.94114989 -165.99438477 169.19287109 C-168.90530346 172.15694569 -171.82272852 175.11438411 -174.74438477 178.06787109 C-175.41115234 178.75123535 -176.07791992 179.43459961 -176.76489258 180.13867188 C-177.39234375 180.77272949 -178.01979492 181.40678711 -178.66625977 182.06005859 C-179.21378906 182.61806152 -179.76131836 183.17606445 -180.32543945 183.75097656 C-183.25918833 186.28560513 -185.50877428 187.13891437 -189.36938477 187.56787109 C-194.69880346 187.01655192 -197.76023193 184.5401546 -201.33813477 180.63427734 C-211.51156871 167.05126862 -216.36875154 154.23535082 -216.36499023 137.22485352 C-216.36934027 135.02784288 -216.40565796 132.83288381 -216.44360352 130.63623047 C-216.51344712 121.86962019 -215.47071955 114.33910844 -211.99438477 106.19287109 C-211.63618652 105.33910889 -211.27798828 104.48534668 -210.90893555 103.60571289 C-204.94945321 90.61853912 -194.04754257 80.87334639 -184.09643555 70.92431641 C-181.75314437 68.57664707 -179.4263505 66.21341936 -177.09985352 63.84912109 C-165.5063344 52.16655877 -154.83307638 43.34673106 -138.99438477 38.19287109 C-138.28797852 37.95826172 -137.58157227 37.72365234 -136.85375977 37.48193359 C-119.48458816 32.44633342 -100.26940473 35.80502546 -84.43188477 43.88037109 C-68.69666502 52.86865796 -68.69666502 52.86865796 -65.99438477 60.19287109 C-65.36652641 65.84359628 -66.55973294 68.87149748 -69.99438477 73.19287109 C-72.36863893 75.81383516 -74.86572665 78.29780735 -77.38500977 80.77880859 C-78.08962341 81.48059235 -78.79423706 82.1823761 -79.52020264 82.90542603 C-81.75691911 85.13100762 -84.00051165 87.34950748 -86.24438477 89.56787109 C-87.76828273 91.08173063 -89.29172524 92.5960488 -90.81469727 94.11083984 C-94.53600418 97.81017522 -98.26297136 101.50373157 -101.99438477 105.19287109 C-100.33576597 108.71631753 -98.42781168 110.99188987 -95.64282227 113.73974609 C-94.79204102 114.58408203 -93.94125977 115.42841797 -93.06469727 116.29833984 C-92.17524414 117.17103516 -91.28579102 118.04373047 -90.36938477 118.94287109 C-89.47219727 119.83103516 -88.57500977 120.71919922 -87.65063477 121.63427734 C-85.43631473 123.82504079 -83.21746042 126.01099873 -80.99438477 128.19287109 C-80.3148877 127.75064209 -79.63539063 127.30841309 -78.93530273 126.8527832 C-54.13406437 110.86685617 -21.24762966 94.19287109 9.00561523 94.19287109 C9.00561523 82.97287109 9.00561523 71.75287109 9.00561523 60.19287109 C6.24186523 60.29599609 3.47811523 60.39912109 0.63061523 60.50537109 C-7.03899214 60.62175465 -12.58663734 59.70592523 -18.99438477 55.19287109 C-19.90188477 54.63599609 -20.80938477 54.07912109 -21.74438477 53.50537109 C-28.86712376 46.18477823 -31.30984853 38.40948012 -31.38598633 28.46118164 C-31.26811378 22.08240784 -29.59326612 17.49151565 -25.99438477 12.19287109 C-25.43750977 11.28537109 -24.88063477 10.37787109 -24.30688477 9.44287109 C-17.14075877 2.47042418 -9.77194644 0.04778375 0 0 Z M-7.99438477 23.19287109 C-10.44559873 26.86969205 -10.81857238 29.92208072 -9.99438477 34.19287109 C-7.30292338 37.70672346 -5.32009821 39.47865218 -0.99438477 40.19287109 C1.5767254 40.29690138 4.12112679 40.35002663 6.69238281 40.35400391 C7.84682137 40.36145126 7.84682137 40.36145126 9.02458191 40.36904907 C11.56644593 40.38363367 14.10824753 40.3904666 16.65014648 40.39599609 C18.42127992 40.40175071 20.19241334 40.4075084 21.96354675 40.41326904 C25.67654713 40.42376858 29.38952593 40.42961806 33.10253906 40.43310547 C37.85042843 40.4385872 42.59803059 40.46261276 47.34582996 40.49107742 C51.00478437 40.5097402 54.6636701 40.51491135 58.32266808 40.51644135 C60.07249204 40.51946031 61.822315 40.52746324 63.57209206 40.54062653 C66.02516902 40.55776303 68.47755082 40.55578845 70.93066406 40.54931641 C71.64727203 40.55853119 72.36388 40.56774597 73.10220337 40.57723999 C78.1858999 40.53541878 81.58859147 39.55010893 86.00561523 37.19287109 C88.4568292 33.51605014 88.82980285 30.46366147 88.00561523 26.19287109 C85.31415385 22.67901873 83.33132868 20.90709001 79.00561523 20.19287109 C76.43450507 20.08884081 73.89010368 20.03571556 71.31884766 20.03173828 C70.54922195 20.02677338 69.77959625 20.02180847 68.98664856 20.01669312 C66.44478454 20.00210852 63.90298294 19.99527559 61.36108398 19.98974609 C59.58995055 19.98399148 57.81881713 19.97823379 56.04768372 19.97247314 C52.33468333 19.96197361 48.62170454 19.95612413 44.90869141 19.95263672 C40.16080204 19.94715499 35.41319988 19.92312943 30.66540051 19.89466476 C27.0064461 19.87600199 23.34756037 19.87083084 19.68856239 19.86930084 C17.93873843 19.86628188 16.18891547 19.85827895 14.43913841 19.84511566 C11.98606145 19.82797915 9.53367965 19.82995373 7.08056641 19.83642578 C6.36395844 19.827211 5.64735046 19.81799622 4.9090271 19.8085022 C-0.17466943 19.8503234 -3.577361 20.83563326 -7.99438477 23.19287109 Z M-165.53881836 82.27075195 C-167.74142064 84.50236792 -169.9621576 86.71465322 -172.18579102 88.92529297 C-186.55636304 103.31595395 -196.23640678 115.66602089 -196.24536133 136.67114258 C-196.11461499 145.91946476 -193.33463949 153.11101747 -188.99438477 161.19287109 C-183.34050111 156.48883377 -178.1254595 151.4603159 -172.93798828 146.25 C-172.05914474 145.37130249 -171.18030121 144.49260498 -170.27482605 143.58728027 C-167.88506966 141.19694993 -165.49754196 138.80443501 -163.11100888 136.41088915 C-160.60909131 133.90268585 -158.10430838 131.3973472 -155.59983826 128.89169312 C-150.86648611 124.15524296 -146.13568709 119.41625133 -141.40581793 114.67632329 C-136.01717915 109.27647567 -130.62567303 103.87949482 -125.23393357 98.4827435 C-114.15090819 87.38928842 -103.07145855 76.29226919 -91.99438477 65.19287109 C-101.82147328 57.09573711 -113.60232259 56.10860042 -125.91723633 56.96972656 C-142.73114719 58.77601647 -154.31005657 70.88043425 -165.53881836 82.27075195 Z M170.00561523 64.19287109 C174.70965256 69.84675475 179.73817043 75.06179636 184.94848633 80.24926758 C185.82718384 81.12811111 186.70588135 82.00695465 187.61120605 82.91242981 C190.0015364 85.3021862 192.39405132 87.6897139 194.78759718 90.07624698 C197.29580048 92.57816455 199.80113913 95.08294748 202.30679321 97.5874176 C207.04324337 102.32076975 211.782235 107.05156877 216.52216303 111.78143793 C221.92201066 117.17007671 227.31899151 122.56158283 232.71574283 127.95332229 C243.80919791 139.03634767 254.90621714 150.11579731 266.00561523 161.19287109 C268.10279992 158.45836294 269.73992548 155.91453641 271.13061523 152.75537109 C271.46319336 152.01416016 271.79577148 151.27294922 272.13842773 150.50927734 C276.47562082 138.9238922 274.87606728 124.28414975 270.00561523 113.19287109 C263.84443603 101.45104934 253.08687815 92.04466323 243.82250977 82.71459961 C242.69365802 81.57418243 241.56929907 80.42930061 240.44946289 79.2800293 C228.78898416 67.31520153 216.70657122 57.33586494 199.25341797 56.77368164 C188.2024478 56.68840304 179.742586 58.96375716 170.00561523 64.19287109 Z M29.00561523 60.19287109 C29.00561523 70.75287109 29.00561523 81.31287109 29.00561523 92.19287109 C35.60561523 92.19287109 42.20561523 92.19287109 49.00561523 92.19287109 C49.00561523 81.63287109 49.00561523 71.07287109 49.00561523 60.19287109 C42.40561523 60.19287109 35.80561523 60.19287109 29.00561523 60.19287109 Z M-72.99438477 149.19287109 C-73.84774414 149.83611328 -74.70110352 150.47935547 -75.58032227 151.14208984 C-82.39766629 156.44327376 -88.71233359 162.27778257 -94.99438477 168.19287109 C-95.7046582 168.84900391 -96.41493164 169.50513672 -97.14672852 170.18115234 C-103.48991653 176.23896175 -108.7274351 183.20614337 -113.99438477 190.19287109 C-114.95538086 191.46130859 -114.95538086 191.46130859 -115.93579102 192.75537109 C-132.52365098 215.53962422 -142.98795379 242.58434087 -147.99438477 270.19287109 C-148.17171143 271.10673584 -148.34903809 272.02060059 -148.53173828 272.9621582 C-150.23115688 282.57102036 -150.35156278 292.03049655 -150.30688477 301.75537109 C-150.30472961 302.59736053 -150.30257446 303.43934998 -150.300354 304.30685425 C-150.13854029 343.68136828 -137.98153661 382.5956952 -113.99438477 414.19287109 C-113.35114258 415.04623047 -112.70790039 415.89958984 -112.04516602 416.77880859 C-106.7439821 423.59615262 -100.90947329 429.91081992 -94.99438477 436.19287109 C-94.33825195 436.90314453 -93.68211914 437.61341797 -93.00610352 438.34521484 C-86.94829411 444.68840286 -79.98111249 449.92592143 -72.99438477 455.19287109 C-72.14875977 455.83353516 -71.30313477 456.47419922 -70.43188477 457.13427734 C-47.64966399 473.72065767 -20.60197735 484.1910384 7.00561523 489.19287109 C7.92165527 489.36947266 8.83769531 489.54607422 9.78149414 489.72802734 C19.32355799 491.40759854 28.7223279 491.59151556 38.38061523 491.56787109 C39.21777069 491.56732727 40.05492615 491.56678345 40.91744995 491.56622314 C54.62186024 491.52539003 67.67103693 490.56256533 81.00561523 487.19287109 C81.91037598 486.96792969 82.81513672 486.74298828 83.74731445 486.51123047 C117.30991214 477.96909342 146.62075183 461.43733796 171.60864258 437.52685547 C172.79992769 436.38928436 174.00491288 435.26608885 175.21264648 434.14599609 C181.54053488 428.11452609 186.75637322 421.15610922 192.00561523 414.19287109 C192.6462793 413.34724609 193.28694336 412.50162109 193.94702148 411.63037109 C207.06248797 393.61562363 215.41083323 373.31907207 222.00561523 352.19287109 C222.33561523 351.17580078 222.66561523 350.15873047 223.00561523 349.11083984 C223.7994704 346.48532926 224.42935191 343.87485134 225.00561523 341.19287109 C225.28276367 339.95021484 225.55991211 338.70755859 225.84545898 337.42724609 C230.69800313 312.7984514 230.14339222 284.48132642 224.00561523 260.19287109 C223.78067383 259.28811035 223.55573242 258.38334961 223.32397461 257.45117188 C217.16577499 233.25521538 207.16307143 210.15909354 192.00561523 190.19287109 C191.04075195 188.91283203 191.04075195 188.91283203 190.05639648 187.60693359 C184.75521257 180.78958957 178.92070376 174.47492227 173.00561523 168.19287109 C172.34948242 167.48259766 171.69334961 166.77232422 171.01733398 166.04052734 C164.95952457 159.69733933 157.99234296 154.45982076 151.00561523 149.19287109 C150.15999023 148.55220703 149.31436523 147.91154297 148.44311523 147.25146484 C130.42836777 134.13599836 110.13181621 125.7876531 89.00561523 119.19287109 C87.98854492 118.86287109 86.97147461 118.53287109 85.92358398 118.19287109 C83.2980734 117.39901593 80.68759548 116.76913442 78.00561523 116.19287109 C76.76295898 115.91572266 75.52030273 115.63857422 74.23999023 115.35302734 C23.81538561 105.42696843 -32.11434081 118.1585842 -72.99438477 149.19287109 Z M-120.30126953 122.38623047 C-120.84066162 122.93085937 -121.38005371 123.47548828 -121.93579102 124.03662109 C-122.5190918 124.62314453 -123.10239258 125.20966797 -123.70336914 125.81396484 C-124.62085937 126.74402344 -124.62085937 126.74402344 -125.55688477 127.69287109 C-126.48017578 128.62292969 -126.48017578 128.62292969 -127.42211914 129.57177734 C-128.94843992 131.10993007 -130.47169627 132.65112252 -131.99438477 134.19287109 C-127.75621939 139.25910878 -123.32029514 143.99325178 -118.61938477 148.63037109 C-117.9787207 149.26652344 -117.33805664 149.90267578 -116.67797852 150.55810547 C-115.11907597 152.10537441 -113.5578706 153.65023601 -111.99438477 155.19287109 C-111.53475342 154.79890137 -111.07512207 154.40493164 -110.6015625 153.99902344 C-106.39916992 150.39697266 -102.19677734 146.79492188 -97.99438477 143.19287109 C-99.47881616 139.74170207 -101.43771544 137.50427869 -104.09204102 134.86474609 C-104.89319336 134.06552734 -105.6943457 133.26630859 -106.51977539 132.44287109 C-107.35702148 131.61787109 -108.19426758 130.79287109 -109.05688477 129.94287109 C-109.89799805 129.10240234 -110.73911133 128.26193359 -111.60571289 127.39599609 C-115.50821539 122.24975013 -115.50821539 122.24975013 -120.30126953 122.38623047 Z M188.80834961 128.20458984 C188.33872803 128.67429199 187.86910645 129.14399414 187.38525391 129.62792969 C185.95093947 131.06005878 184.50883616 132.48401362 183.06616211 133.90771484 C181.71941406 135.2515625 181.71941406 135.2515625 180.34545898 136.62255859 C179.51393311 137.44997559 178.68240723 138.27739258 177.82568359 139.12988281 C175.78508936 140.98431277 175.78508936 140.98431277 176.00561523 143.19287109 C177.58702945 144.83168562 177.58702945 144.83168562 179.63061523 146.50537109 C180.30350586 147.07900391 180.97639648 147.65263672 181.66967773 148.24365234 C184.44722706 150.56137327 187.22654244 152.8769771 190.00561523 155.19287109 C196.60561523 148.59287109 203.20561523 141.99287109 210.00561523 135.19287109 C205.22641145 129.57194784 205.22641145 129.57194784 200.19311523 124.25537109 C199.31719727 123.37558594 199.31719727 123.37558594 198.42358398 122.47802734 C194.90561864 119.2895684 191.34609563 125.68321637 188.80834961 128.20458984 Z " fill="#000000" transform="translate(215.994384765625,0.80712890625)"/>
<path d="M0 0 C1.14038979 -0.01052147 1.14038979 -0.01052147 2.30381775 -0.02125549 C4.74948081 -0.03869724 7.19490199 -0.04510935 9.640625 -0.046875 C10.89149399 -0.04788712 10.89149399 -0.04788712 12.16763306 -0.04891968 C24.31825957 -0.03326674 36.03283279 0.31610921 47.890625 3.203125 C48.61588379 3.36941406 49.34114258 3.53570312 50.08837891 3.70703125 C93.02139325 13.72813682 131.65477758 41.34430743 155.34423828 78.48193359 C172.15338932 106.40885346 181.3583381 137.17086292 181.203125 169.828125 C181.20039078 171.02050278 181.20039078 171.02050278 181.19760132 172.23696899 C181.15180226 184.09802933 180.78128741 195.64047535 177.890625 207.203125 C177.71370117 207.91339844 177.53677734 208.62367188 177.35449219 209.35546875 C176.06009216 214.3721072 174.53673764 219.29186905 172.890625 224.203125 C172.67567383 224.85845215 172.46072266 225.5137793 172.23925781 226.18896484 C162.98342641 254.00488269 145.52328813 280.49400748 122.890625 299.203125 C122.08109375 299.90050781 121.2715625 300.59789062 120.4375 301.31640625 C93.38727564 324.21418389 56.85462983 340.04442519 21.10546875 340.44140625 C20.37547165 340.45110947 19.64547455 340.46081268 18.89335632 340.47080994 C16.53822275 340.49566717 14.18337657 340.50833079 11.828125 340.515625 C10.62201569 340.51955261 10.62201569 340.51955261 9.39154053 340.52355957 C-3.81347645 340.52816394 -16.27235897 339.48741552 -29.109375 336.203125 C-31.0275 335.73519531 -31.0275 335.73519531 -32.984375 335.2578125 C-36.40658045 334.34878918 -39.75012502 333.32156227 -43.109375 332.203125 C-44.34300781 331.79578125 -45.57664062 331.3884375 -46.84765625 330.96875 C-73.96605283 321.60439166 -99.80563161 304.34540177 -118.109375 282.203125 C-118.80675781 281.39359375 -119.50414062 280.5840625 -120.22265625 279.75 C-139.23543134 257.28931232 -151.70379818 230.07417138 -157.109375 201.203125 C-157.28670166 200.28724609 -157.46402832 199.37136719 -157.64672852 198.42773438 C-159.27951435 189.12078245 -159.46771448 179.99519575 -159.421875 170.578125 C-159.41971985 169.78187714 -159.4175647 168.98562927 -159.41534424 168.16525269 C-159.36374982 156.28616035 -158.98175896 144.78482291 -156.109375 133.203125 C-155.90538086 132.36330078 -155.70138672 131.52347656 -155.49121094 130.65820312 C-150.58562357 110.99301009 -141.20407134 79.48050775 -124.109375 67.015625 C-120.26965381 65.97570051 -117.93434968 66.09040509 -114.109375 67.203125 C-110.7364538 69.91612683 -108.73791382 71.90005154 -108.109375 76.203125 C-109.12634886 82.62277251 -112.62909888 87.74456807 -116.14453125 93.05859375 C-130.68683371 116.33205991 -137.33280307 142.38447001 -137.359375 169.640625 C-137.36038208 170.35588348 -137.36138916 171.07114197 -137.36242676 171.80807495 C-137.35215777 182.58582954 -136.7472709 192.70888697 -134.109375 203.203125 C-133.85414063 204.39292969 -133.59890625 205.58273437 -133.3359375 206.80859375 C-127.74323927 230.74431598 -115.16108603 254.52180626 -97.546875 271.765625 C-96.7425 272.57 -95.938125 273.374375 -95.109375 274.203125 C-95.109375 274.863125 -95.109375 275.523125 -95.109375 276.203125 C-94.50609375 276.47253906 -93.9028125 276.74195313 -93.28125 277.01953125 C-91.0851431 278.21633052 -89.98475379 279.27326566 -88.359375 281.140625 C-67.11234749 302.97911152 -31.72654319 316.96441882 -1.64697266 318.36425781 C2.32411106 318.41027765 6.29427224 318.44927674 10.265625 318.453125 C11.34225906 318.45463562 11.34225906 318.45463562 12.44064331 318.45617676 C23.23716599 318.44591864 33.37812238 317.845612 43.890625 315.203125 C45.67533203 314.82027344 45.67533203 314.82027344 47.49609375 314.4296875 C71.43181598 308.83698927 95.20930626 296.25483603 112.453125 278.640625 C113.2575 277.83625 114.061875 277.031875 114.890625 276.203125 C115.550625 276.203125 116.210625 276.203125 116.890625 276.203125 C117.29474609 275.29820312 117.29474609 275.29820312 117.70703125 274.375 C118.90383052 272.1788931 119.96076566 271.07850379 121.828125 269.453125 C143.66371263 248.20891787 157.6456866 212.8316028 159.05175781 182.7565918 C159.09784287 178.80104713 159.13729119 174.84644302 159.140625 170.890625 C159.14129974 170.17414795 159.14197449 169.4576709 159.14266968 168.71948242 C159.11715022 151.66389856 156.71911292 136.25778269 150.890625 120.203125 C150.64328613 119.51895508 150.39594727 118.83478516 150.14111328 118.12988281 C141.55656441 94.8820838 127.21408979 72.93229344 107.890625 57.203125 C106.54097656 56.07970703 106.54097656 56.07970703 105.1640625 54.93359375 C78.19978371 33.25977472 45.88779202 21.73723166 11.328125 21.828125 C10.20969208 21.82844223 10.20969208 21.82844223 9.06866455 21.82876587 C-3.04929427 21.86297358 -14.41102859 22.84454136 -26.109375 26.203125 C-27.17792725 26.49993164 -27.17792725 26.49993164 -28.26806641 26.80273438 C-35.39821819 28.8115941 -42.26101954 31.23971361 -49.109375 34.078125 C-54.40926966 36.15999192 -57.63150649 36.89628436 -63.109375 35.203125 C-65.72914308 33.52378649 -66.78924151 32.33663467 -67.63671875 29.3359375 C-68.35834293 25.03862498 -68.30031425 22.10225418 -66.109375 18.203125 C-48.3325568 5.95510889 -21.22918422 0.13089903 0 0 Z " fill="#000000" transform="translate(244.109375,132.796875)"/>
<path d="M0 0 C0.825 -0.01289063 1.65 -0.02578125 2.5 -0.0390625 C5.24938363 0.69124253 6.98162593 1.69966153 8.9503479 3.7633667 C11.35852212 8.03443644 10.49747118 13.40473106 10.35546875 18.15234375 C10.33781982 20.66079801 10.32158732 23.16926256 10.30664062 25.67773438 C10.25475956 29.62635028 10.18723988 33.57339898 10.09301758 37.52124023 C10.01186848 41.33667551 9.9923665 45.14865235 9.98046875 48.96484375 C9.9350444 50.14312241 9.88962006 51.32140106 9.84281921 52.53538513 C9.85220308 55.85012707 9.95317462 58.47693843 11 61.625 C13.37195197 63.7801099 15.58394825 65.04278518 18.5004425 66.35475159 C22.49649959 68.3855051 24.87217952 71.74624237 27 75.625 C27.35451354 76.95285882 27.69087123 78.28584792 28 79.625 C28.63813629 79.62055878 29.27627258 79.61611755 29.93374634 79.61154175 C36.58487709 79.56724081 43.23596581 79.53710541 49.88720703 79.51513672 C52.36834415 79.505089 54.84946945 79.49144856 57.33056641 79.47412109 C60.90009479 79.44981914 64.46946638 79.43850442 68.0390625 79.4296875 C69.14553131 79.41936493 70.25200012 79.40904236 71.39199829 79.39840698 C77.75107508 79.39748387 82.86054269 79.64218485 88.375 83.125 C90.556675 86.48142308 90.52555984 89.15660095 90.62890625 93.08984375 C89.93682761 95.87965145 88.94896716 97.58933765 86.86286926 99.57658386 C82.58929196 101.98173784 77.22140806 101.12250526 72.47265625 100.98046875 C69.96420199 100.96281982 67.45573744 100.94658732 64.94726562 100.93164062 C60.99864972 100.87975956 57.05160102 100.81223988 53.10375977 100.71801758 C49.28832449 100.63686848 45.47634765 100.6173665 41.66015625 100.60546875 C40.48187759 100.5600444 39.30359894 100.51462006 38.08961487 100.46781921 C34.77454843 100.477204 32.14828799 100.57780972 29 101.625 C26.83892315 104.00039411 25.57079203 106.21709181 24.25193787 109.13764954 C21.12606645 115.34813165 14.24470935 118.33222491 8 120.625 C-1.65759612 121.80635732 -9.81413915 121.18490153 -18 115.625 C-18.9075 115.068125 -19.815 114.51125 -20.75 113.9375 C-27.78897513 106.70299778 -30.37381812 98.89039046 -30.45532227 89.03173828 C-30.27616069 81.08623449 -27.55928207 74.63018765 -22.25390625 68.66015625 C-18.8281788 65.5396161 -15.14786751 63.67819442 -11 61.625 C-10.99857498 60.93453079 -10.99714996 60.24406158 -10.99568176 59.53266907 C-10.97599509 52.34600095 -10.92174259 45.16018335 -10.84741211 37.97387695 C-10.82143984 35.29183387 -10.80771779 32.61014307 -10.80444336 29.92797852 C-10.7951668 26.07249939 -10.75419944 22.21845998 -10.70703125 18.36328125 C-10.7109639 17.16415604 -10.71489655 15.96503082 -10.71894836 14.72956848 C-10.55643717 5.45709876 -10.55643717 5.45709876 -7.61206055 2.37036133 C-4.79038752 0.48493835 -3.36410104 -0.05256408 0 0 Z M-9 86.625 C-9.69847125 89.4646864 -9.69847125 91.7853136 -9 94.625 C-7.01078114 97.6088283 -5.61497432 99.22776841 -2.0625 100.1015625 C1.86063492 100.38390933 3.67112371 99.84425086 7 97.625 C9.21925086 94.29612371 9.75890933 92.48563492 9.4765625 88.5625 C8.60276841 85.01002568 6.9838283 83.61421886 4 81.625 C-1.81663203 80.19429615 -5.60814906 81.53722359 -9 86.625 Z " fill="#000000" transform="translate(255,212.375)"/>
<path d="M0 0 C3.125 1.875 3.125 1.875 5 5 C5.98876625 10.02622846 5.7769173 13.70513784 3.125 18.125 C-1.29486216 20.7769173 -4.97377154 20.98876625 -10 20 C-13.125 18.125 -13.125 18.125 -15 15 C-15.98876625 9.97377154 -15.7769173 6.29486216 -13.125 1.875 C-8.70513784 -0.7769173 -5.02622846 -0.98876625 0 0 Z " fill="#000000" transform="translate(380,293)"/>
<path d="M0 0 C3.125 1.875 3.125 1.875 5 5 C5.98876625 10.02622846 5.7769173 13.70513784 3.125 18.125 C-1.29486216 20.7769173 -4.97377154 20.98876625 -10 20 C-13.125 18.125 -13.125 18.125 -15 15 C-15.98876625 9.97377154 -15.7769173 6.29486216 -13.125 1.875 C-8.70513784 -0.7769173 -5.02622846 -0.98876625 0 0 Z " fill="#000000" transform="translate(140,293)"/>
<path d="M0 0 C3.125 1.875 3.125 1.875 5 5 C5.98876625 10.02622846 5.7769173 13.70513784 3.125 18.125 C-1.29486216 20.7769173 -4.97377154 20.98876625 -10 20 C-13.125 18.125 -13.125 18.125 -15 15 C-15.98876625 9.97377154 -15.7769173 6.29486216 -13.125 1.875 C-8.70513784 -0.7769173 -5.02622846 -0.98876625 0 0 Z " fill="#000000" transform="translate(260,173)"/>
<path d="M0 0 C3.125 1.875 3.125 1.875 5 5 C5.98876625 10.02622846 5.7769173 13.70513784 3.125 18.125 C-1.29486216 20.7769173 -4.97377154 20.98876625 -10 20 C-13.125 18.125 -13.125 18.125 -15 15 C-15.98876625 9.97377154 -15.7769173 6.29486216 -13.125 1.875 C-8.70513784 -0.7769173 -5.02622846 -0.98876625 0 0 Z " fill="#000000" transform="translate(160,173)"/>
<path d="M0 0 C3.125 1.875 3.125 1.875 5 5 C5.98876625 10.02622846 5.7769173 13.70513784 3.125 18.125 C-1.29486216 20.7769173 -4.97377154 20.98876625 -10 20 C-13.125 18.125 -13.125 18.125 -15 15 C-15.98876625 9.97377154 -15.7769173 6.29486216 -13.125 1.875 C-8.70513784 -0.7769173 -5.02622846 -0.98876625 0 0 Z " fill="#000000" transform="translate(260,413)"/>
</svg>
