<?xml version="1.0" encoding="UTF-8"?>
<svg version="1.1" xmlns="http://www.w3.org/2000/svg" width="512" height="512">
<path d="M0 0 C4.97530939 3.82134029 8.14614718 7.94326405 10 14 C10.40215442 17.26986163 10.38040566 20.49976278 10.34057617 23.79077148 C10.34123329 25.22607964 10.34123329 25.22607964 10.34190369 26.69038391 C10.33982374 29.83416578 10.31652992 32.97740573 10.29296875 36.12109375 C10.28736998 38.30827035 10.28310121 40.49545073 10.28010559 42.68263245 C10.268679 48.42510456 10.23923046 54.16734723 10.20599365 59.909729 C10.17524572 65.77507422 10.16159016 71.6404567 10.14648438 77.50585938 C10.1143588 89.00400678 10.06318877 100.50198427 10 112 C13.63 112 17.26 112 21 112 C20.99111755 110.80476212 20.98223511 109.60952423 20.9730835 108.37806702 C20.89186596 97.09364061 20.83197131 85.80927379 20.79275131 74.52462101 C20.77190979 68.72356511 20.74365456 62.92274588 20.69824219 57.12182617 C20.65466245 51.51971052 20.63083707 45.91782199 20.62049103 40.31554985 C20.61312145 38.18218856 20.59873046 36.04883918 20.57707977 33.91557503 C20.54788496 30.91878889 20.54405076 27.9229317 20.54589844 24.92602539 C20.53151733 24.05136124 20.51713623 23.17669708 20.50231934 22.27552795 C20.54921001 15.20997872 22.38124678 9.24593362 26.859375 3.6953125 C33.36016671 -1.70410541 39.18553332 -4.62454078 47.7734375 -4.28515625 C54.20307789 -3.46171108 60.37642488 -0.56732725 65 4 C70.32205246 11.56364045 71.15118677 18.17742486 71.11352539 27.1965332 C71.11367142 28.11409897 71.11381744 29.03166473 71.1139679 29.97703552 C71.11327275 33.00164171 71.10549897 36.02618586 71.09765625 39.05078125 C71.09579066 41.15113796 71.09436742 43.25149511 71.09336853 45.35185242 C71.08955449 50.8739645 71.07973368 56.39605019 71.06866455 61.91815186 C71.05842652 67.55545698 71.05386578 73.19276638 71.04882812 78.83007812 C71.03811043 89.88673033 71.02104735 100.94336297 71 112 C74.3 112 77.6 112 81 112 C80.99000725 110.22260437 80.99000725 110.22260437 80.97981262 108.40930176 C80.91892541 97.22755279 80.87399076 86.04583757 80.84456348 74.86396027 C80.82892591 69.11561661 80.80772227 63.36740709 80.77368164 57.61914062 C80.74102047 52.06891059 80.72313263 46.51880935 80.71536827 40.9684906 C80.70983692 38.85385613 80.69903555 36.7392285 80.68280983 34.62464905 C80.66094597 31.65651363 80.65803685 28.68890647 80.65942383 25.72070312 C80.648638 24.85179443 80.63785217 23.98288574 80.6267395 23.08764648 C80.66721247 15.05235318 82.7525601 8.54801415 88.25390625 2.5390625 C96.49600228 -4.72578277 106.59819917 -4.58206968 117 -4 C124.27149722 -2.77598192 129.99237197 0.77652234 134.28515625 6.8046875 C137.13284804 11.56104727 138.12138854 15.42690039 138.14044189 20.89105225 C138.14615204 21.87471268 138.15186218 22.85837311 138.15774536 23.87184143 C138.15942215 25.48167152 138.15942215 25.48167152 138.16113281 27.12402344 C138.16609772 28.25958176 138.17106262 29.39514008 138.17617798 30.56510925 C138.1908047 34.32987066 138.1976053 38.09458982 138.203125 41.859375 C138.20887952 44.48333741 138.21463721 47.10729981 138.22039795 49.73126221 C138.22997026 54.53809531 138.23586521 59.34491936 138.2388947 64.15176082 C138.24335534 71.18854887 138.26080814 78.22514072 138.2898953 85.26186919 C138.31430724 91.38394368 138.3218485 97.50593866 138.32357025 103.62805939 C138.32657832 106.21613884 138.33454364 108.80421784 138.34775543 111.39226532 C138.50794899 145.20849968 131.20996676 170.67288886 107.00390625 195.359375 C104 198 104 198 101.76055908 199.12862015 C99.08138967 200.52057456 97.10407576 201.82468825 95 204 C93.77243833 208.1995839 94.10264763 212.22935778 94.35546875 216.56542969 C94.41476191 218.57776839 94.4740247 220.59010811 94.53245449 222.60247207 C94.60524067 224.82175788 94.70026834 227.03921146 94.80023193 229.25743103 C95.0185024 234.20508414 95.14813534 239.15324645 95.26806641 244.10412598 C95.53245999 254.67954735 95.86806987 265.25211721 96.21157455 275.82522297 C96.38350377 281.15368841 96.54950494 286.48233861 96.71606445 291.81097412 C97.06694449 303.00923022 97.42348332 314.20730048 97.78137207 325.40533447 C98.32101628 342.29176715 98.8561073 359.17834322 99.38580227 376.06509089 C99.58370632 382.36748699 99.78457381 388.66977912 99.9879303 394.97200155 C100.11423585 398.90280693 100.23819369 402.83368405 100.36159134 406.76458168 C100.41863834 408.56636778 100.47664092 410.36812396 100.53574753 412.16984367 C100.82632131 421.04142569 101.05694482 429.91046547 101.10473633 438.78704834 C101.11577282 439.87619801 101.11577282 439.87619801 101.12703228 440.9873507 C101.14366526 456.81514812 94.94377986 470.20499065 83.921875 481.30078125 C72.65430964 491.70972197 58.72708108 496.44780277 43.48046875 496.27734375 C29.07630046 495.12953685 14.89328959 489.85133542 5 479 C-0.90032028 471.60009666 -5.41885769 464.20300144 -8 455 C-8.1755948 454.44662555 -8.35118959 453.89325109 -8.53210545 453.32310772 C-9.1911352 450.05100915 -9.14770835 446.81376947 -9.14256287 443.49043274 C-9.1447157 442.73571178 -9.14686853 441.98099083 -9.14908659 441.20339954 C-9.1533357 438.6854407 -9.14863124 436.16761172 -9.14233398 433.6496582 C-9.14134292 432.76959441 -9.14035185 431.88953061 -9.13933074 430.98279822 C-9.10577486 409.88671151 -8.49237929 388.81217647 -7.82135701 367.72838759 C-7.65221518 362.37669417 -7.48973958 357.02479725 -7.32627869 351.67292786 C-7.05219903 342.73062969 -6.77343102 333.78848803 -6.49145508 324.84643555 C-6.16651493 314.54065978 -5.84833045 304.23469231 -5.533804 293.92859381 C-5.22838974 283.92355663 -4.9191964 273.91864008 -4.60796928 263.91378212 C-4.47655146 259.68882711 -4.34627187 255.46383934 -4.21690559 251.23882103 C-4.06488051 246.28149062 -3.90947873 241.32427685 -3.75151634 236.36713219 C-3.6943594 234.55762733 -3.63830011 232.74808739 -3.58345795 230.93851089 C-3.30967211 221.92841085 -2.9998827 212.96602271 -2 204 C-3.14311646 203.57569702 -3.14311646 203.57569702 -4.30932617 203.14282227 C-7.81566624 201.65355833 -10.4613255 199.40465247 -13.3125 196.9375 C-13.88500488 196.44507813 -14.45750977 195.95265625 -15.04736328 195.4453125 C-35.19737511 177.83751215 -45.09576609 154.35819582 -47 128 C-47.3502049 119.68248564 -47.28245263 111.35434584 -47.265625 103.03125 C-47.26697554 100.65572063 -47.2689193 98.28019152 -47.27142334 95.90466309 C-47.27435169 90.9595269 -47.27014819 86.01446358 -47.26074219 81.06933594 C-47.24929881 74.74707556 -47.25595251 68.42498412 -47.26788712 62.1027298 C-47.27512512 57.21100599 -47.27280971 52.31932207 -47.26763153 47.42759705 C-47.266303 45.09610473 -47.26791465 42.76460873 -47.27259064 40.43312073 C-47.2776934 37.17732161 -47.26989516 33.92179457 -47.25878906 30.66601562 C-47.26283752 29.71520111 -47.26688599 28.7643866 -47.27105713 27.78475952 C-47.21196548 18.39098163 -46.22829554 10.42784881 -39.46484375 3.40625 C-29.22850782 -6.10724672 -11.9451407 -7.49326169 0 0 Z M-30 16 C-31.19684025 18.3936805 -31.13092456 19.87728443 -31.14044189 22.55010986 C-31.14615204 23.50866882 -31.15186218 24.46722778 -31.15774536 25.45483398 C-31.15886322 26.51033447 -31.15998108 27.56583496 -31.16113281 28.65332031 C-31.16609772 29.76253845 -31.17106262 30.87175659 -31.17617798 32.0145874 C-31.19083856 35.70243951 -31.1976112 39.39024848 -31.203125 43.078125 C-31.20887714 45.64247641 -31.21463486 48.20682781 -31.22039795 50.7711792 C-31.22957515 55.47188362 -31.23586829 60.17257083 -31.2388947 64.87328267 C-31.24335517 71.76239132 -31.26080271 78.65129956 -31.2898953 85.54034734 C-31.31428153 91.52573879 -31.32184734 97.51103696 -31.32357025 103.49648285 C-31.32658236 106.03039383 -31.3345617 108.56430426 -31.34775543 111.09818268 C-31.47770261 137.99446093 -27.63329338 160.14539735 -8 180 C0.73930723 189.36008859 0.73930723 189.36008859 12 194 C12.19911808 221.27242108 11.68528653 248.48091095 10.78842545 275.73776841 C10.61541353 281.04212302 10.45007327 286.34671731 10.28393555 291.65129089 C9.96984235 301.64787742 9.65008536 311.64427275 9.32770443 321.64059514 C8.74954943 339.57054924 8.17924809 357.50075223 7.61419773 375.43112391 C7.41651806 381.69590058 7.21566597 387.96056457 7.0120697 394.22515166 C6.88578189 398.12645394 6.76182984 402.02782819 6.63840866 405.92922211 C6.58137126 407.71650339 6.52336952 409.50375424 6.46425247 411.29096794 C6.17282983 420.1146422 5.9378029 428.93790173 5.86791992 437.7664032 C5.85689649 438.49147027 5.84587305 439.21653734 5.83451557 439.96357614 C5.7958125 452.46360102 10.403886 461.22888706 18.9140625 469.96484375 C27.74839068 478.28882229 37.22824589 480.50888528 49.10546875 480.27734375 C58.91907181 479.57848135 68.17946622 475.05917406 74.97265625 467.9296875 C81.40880288 460.08606083 85.11539685 451.92809432 85.14379883 441.76104736 C85.14747971 440.47456676 85.15116058 439.18808617 85.154953 437.86262131 C85.15218839 436.43347776 85.1486881 435.00433549 85.14453125 433.57519531 C85.14358774 432.83539382 85.14264423 432.09559232 85.14167213 431.33337259 C85.10500238 411.51267025 84.43759597 391.70910724 83.78842545 371.90092754 C83.61593176 366.59572967 83.45025706 361.29031865 83.28393555 355.98492432 C82.93361168 344.84084844 82.57692623 333.69698358 82.21862793 322.55316162 C81.67843361 305.75180568 81.1427836 288.95030699 80.61419773 272.14858174 C80.4488355 266.89899314 80.28189663 261.64946457 80.11117554 256.4000473 C79.77993637 246.20704878 79.45824039 236.01410881 79.18685627 225.8193152 C79.0915946 222.2420469 78.98843843 218.66587351 78.86468506 215.08943176 C78.75516514 211.92195606 78.67445642 208.75548058 78.60546875 205.58691406 C78.56851395 204.74564846 78.53155914 203.90438286 78.4934845 203.03762436 C78.4434969 198.97177317 78.78834632 197.26037268 81.39306641 194.05609131 C83.61178855 192.30618278 85.77581721 190.71601355 88.1875 189.25 C105.22335948 178.11877507 116.40813686 161.5503567 121.16622925 141.80426025 C123.28186835 131.26008184 122.59214554 120.15985018 122.56640625 109.4609375 C122.57032102 107.47664712 122.57424926 105.49235637 122.57970566 103.50806963 C122.596585 97.29647388 122.59325167 91.08512465 122.57641602 84.87353516 C122.55941091 78.47981184 122.57546984 72.08676712 122.6076389 65.6931175 C122.63433471 60.17680795 122.64161376 54.66070971 122.63312382 49.14434206 C122.62820609 45.86061061 122.63246525 42.5773789 122.65091133 39.2936821 C122.66829193 35.64368316 122.65387157 31.99515402 122.63110352 28.34521484 C122.64279572 27.26466827 122.65448792 26.1841217 122.66653442 25.0708313 C122.59518917 19.02925581 122.59518917 19.02925581 119.68516541 13.83242798 C116.13946237 11.41274633 113.76734172 11.33232658 109.5 11.375 C108.2109375 11.36210937 106.921875 11.34921875 105.59375 11.3359375 C101.17504235 12.15243783 99.71737519 13.48160749 97 17 C96.07752322 19.8147448 95.87209711 22.38279065 95.86196899 25.33314514 C95.85651566 26.19255203 95.85106232 27.05195892 95.84544373 27.93740845 C95.8444014 28.87208954 95.84335907 29.80677063 95.84228516 30.76977539 C95.83720444 31.76040482 95.83212372 32.75103424 95.82688904 33.77168274 C95.81619371 35.92151571 95.80757025 38.07135975 95.80076981 40.22120857 C95.78898256 43.62071184 95.76953212 47.02008799 95.74765015 50.41954041 C95.68601294 60.08441976 95.63190118 69.74928466 95.59863281 79.41430664 C95.57773581 85.32584615 95.54247785 91.23715156 95.49787521 97.14855766 C95.4836809 99.40403941 95.47498508 101.65956255 95.47182083 103.91508675 C95.46693452 107.06351522 95.44383723 110.21131713 95.41650391 113.35961914 C95.42101311 114.76467712 95.42101311 114.76467712 95.4256134 116.19812012 C95.40897392 117.48300072 95.40897392 117.48300072 95.39199829 118.7938385 C95.38868814 119.53806092 95.385378 120.28228334 95.38196754 121.04905796 C94.88711915 123.57655158 94.04004193 124.46381249 92 126 C88.78540039 126.40405273 88.78540039 126.40405273 84.84765625 126.43359375 C83.8028434 126.44145653 83.8028434 126.44145653 82.73692322 126.44947815 C81.26514009 126.45589525 79.79330566 126.45456529 78.3215332 126.44604492 C76.07344844 126.43754141 73.82791134 126.46628321 71.58007812 126.49804688 C70.14843826 126.49965925 68.71679391 126.49908066 67.28515625 126.49609375 C65.98457275 126.49794678 64.68398926 126.4997998 63.34399414 126.50170898 C60 126 60 126 57.82115173 124.58874512 C55.01779575 120.60380856 55.46089651 116.83871632 55.51757812 112.07836914 C55.51366562 111.07144516 55.50975311 110.06452118 55.50572205 109.02708435 C55.49974468 106.84123931 55.50292129 104.65535451 55.5141449 102.46953011 C55.53137305 99.01045056 55.52391692 95.55220925 55.5098877 92.09312439 C55.48020247 83.50224418 55.49343519 74.91152289 55.50506592 66.32061768 C55.51326223 59.06212621 55.50535943 51.80400022 55.47593689 44.54556084 C55.46883184 41.13691996 55.48553571 37.72891823 55.50305176 34.32032776 C55.49734466 32.23055678 55.49052776 30.14078844 55.48242188 28.05102539 C55.49373642 27.10280914 55.50505096 26.1545929 55.51670837 25.17764282 C55.4771877 20.91966332 55.38594942 18.6210535 53.09484863 14.93431091 C50.38223453 12.42957669 49.41101614 12.04653013 45.6875 11.625 C41.85793506 11.66944541 41.85793506 11.66944541 39.125 14.375 C36.48627031 17.63460726 35.87567299 19.08758693 35.86196899 23.16856384 C35.85651566 24.04204971 35.85106232 24.91553558 35.84544373 25.81549072 C35.8444014 26.77606384 35.84335907 27.73663696 35.84228516 28.72631836 C35.83720444 29.73616287 35.83212372 30.74600739 35.82688904 31.78645325 C35.81617054 33.98434004 35.80755619 36.18223785 35.80076981 38.3801403 C35.7890109 41.85509384 35.76956676 45.32992139 35.74765015 48.80482483 C35.68592593 58.68649123 35.63192763 68.5681449 35.59863281 78.44995117 C35.57773472 84.48885953 35.54247136 90.52753879 35.49787521 96.5663166 C35.48367677 98.8720385 35.47498416 101.17780093 35.47182083 103.48356438 C35.46693431 106.70405065 35.44383492 109.92392444 35.41650391 113.14428711 C35.42101311 114.58211044 35.42101311 114.58211044 35.4256134 116.04898071 C35.40897392 117.36343925 35.40897392 117.36343925 35.39199829 118.70445251 C35.38868814 119.46602126 35.385378 120.22759001 35.38196754 121.0122366 C34.88942488 123.57543418 34.0850446 124.46124746 32 126 C29.27093638 126.26156261 26.7753901 126.34921131 24.05078125 126.29296875 C22.89185616 126.28660149 22.89185616 126.28660149 21.70951843 126.28010559 C19.24349008 126.26332183 16.77828104 126.22567147 14.3125 126.1875 C12.63998577 126.17245271 10.96745872 126.15876438 9.29492188 126.14648438 C5.19629922 126.11341946 1.09828849 126.06164028 -3 126 C-3.92311019 123.23066944 -4.12655498 121.58708984 -4.13130188 118.73136902 C-4.13531006 117.86084396 -4.13931824 116.99031891 -4.14344788 116.09341431 C-4.14291916 115.1411496 -4.14239044 114.18888489 -4.1418457 113.20776367 C-4.14705734 111.70000618 -4.14705734 111.70000618 -4.15237427 110.16178894 C-4.15973178 107.97647341 -4.16507719 105.7911504 -4.16866493 103.60582542 C-4.17582514 100.14676714 -4.19148836 96.68785115 -4.21000671 93.22883606 C-4.26249825 83.39305568 -4.31046068 73.557353 -4.32592773 63.72143555 C-4.33600589 57.7072497 -4.3653266 51.69342128 -4.40724754 45.6793766 C-4.41956469 43.38729874 -4.42467751 41.09517041 -4.42244911 38.80306053 C-4.42009775 35.59512529 -4.44225127 32.38821651 -4.4699707 29.18041992 C-4.46336929 28.23422791 -4.45676788 27.28803589 -4.44996643 26.31317139 C-4.53114153 20.5902283 -5.2240181 17.37950882 -9 13 C-11.92247573 11.53876214 -14.55853839 11.7522385 -17.8125 11.6875 C-19.03582031 11.65011719 -20.25914063 11.61273438 -21.51953125 11.57421875 C-25.5737799 12.07019305 -27.14043139 13.15100281 -30 16 Z " fill="#000000" transform="translate(103,10)"/>
<path d="M0 0 C4.69003992 2.59449017 7.14761917 5.36423505 8.89815778 10.49374527 C9.84258465 14.43814869 10.09250553 18.07504099 10.06697559 22.10007572 C10.07018207 22.85697294 10.07338855 23.61387017 10.07669219 24.39370367 C10.08498457 26.92653303 10.07907057 29.45912545 10.07319641 31.99195862 C10.07621746 33.82768485 10.08010671 35.66340983 10.08478898 37.49913257 C10.09508413 42.54141213 10.09288325 47.58362069 10.08860838 52.62590611 C10.08614383 58.06510063 10.0951521 63.50427794 10.10264587 68.94346619 C10.11540369 79.59997456 10.11718511 90.25645774 10.11484561 100.91297246 C10.11306304 109.57687664 10.11481079 118.24077317 10.11907005 126.90467644 C10.11966524 128.137497 10.12026043 129.37031756 10.12087366 130.64049632 C10.12208541 133.14498735 10.12329954 135.64947838 10.12451603 138.1539694 C10.13415644 158.97246981 10.13459394 179.79095898 10.12921212 200.60946048 C10.12904103 201.27149843 10.12886994 201.93353638 10.12869367 202.61563609 C10.12834701 203.95443925 10.12799848 205.29324242 10.12764808 206.63204559 C10.12229415 227.45108427 10.13021193 248.27008056 10.14868164 269.08911133 C10.16941748 292.48983089 10.18008999 315.89052596 10.17610615 339.29125541 C10.17419455 351.67713694 10.17667744 364.06297987 10.19082069 376.44885445 C10.20274297 386.99652345 10.20413006 397.54413011 10.19203053 408.09179998 C10.18614704 413.47070631 10.1850277 418.84949867 10.19703293 424.22839737 C10.2079095 429.15906698 10.20476719 434.0895277 10.19077124 439.02018761 C10.18812914 440.79746998 10.19047544 442.57476881 10.19850711 444.35203499 C10.26276979 459.64187709 9.74889074 474.78034988 -1.296875 486.5625 C-9.88264558 494.61536068 -19.55524584 498.93124742 -31.4140625 498.62109375 C-43.48333392 497.27817482 -52.19967353 492.22812941 -60 483.125 C-67.1642525 473.0656289 -67.7747345 462.22655667 -67.7175293 450.27856445 C-67.72464223 448.70207369 -67.73351222 447.12559004 -67.74398804 445.54911804 C-67.76741383 441.30600832 -67.76689025 437.06320812 -67.76207328 432.82004952 C-67.76147676 428.37087492 -67.78421374 423.92182094 -67.80464172 419.47270203 C-67.83993442 411.06299387 -67.85604993 402.65337196 -67.8644169 394.24359816 C-67.87742735 381.8720159 -67.91563641 369.50050429 -67.95851612 357.12899303 C-67.96165481 356.22259825 -67.96479349 355.31620346 -67.96802729 354.38234216 C-67.97430641 352.57616698 -67.98064995 350.76999202 -67.98705989 348.9638173 C-68.0051509 343.66702928 -68.01623765 338.37028392 -68.02135694 333.07346785 C-68.02517596 329.79240977 -68.03278254 326.51136733 -68.0411644 323.23031807 C-68.04413535 321.70363859 -68.04535812 320.17695462 -68.04475212 318.65027237 C-68.04408983 316.5755519 -68.04940068 314.5009311 -68.05619812 312.42622375 C-68.0574554 311.26283635 -68.05871267 310.09944895 -68.06000805 308.90080738 C-67.89369113 306.38248793 -67.89369113 306.38248793 -69.1875 305.3125 C-71.54033105 305.20183904 -73.86873166 305.15089272 -76.22265625 305.13671875 C-77.68686293 305.1134948 -79.15105564 305.08937646 -80.61523438 305.06445312 C-82.92351257 305.02952732 -85.23128635 305.00010974 -87.53979492 304.98657227 C-105.48969187 304.86069641 -105.48969187 304.86069641 -112.02734375 298.53125 C-112.38957031 297.9640625 -112.75179688 297.396875 -113.125 296.8125 C-113.50527344 296.2453125 -113.88554687 295.678125 -114.27734375 295.09375 C-116.79722819 290.16213066 -116.44181618 284.77833771 -116.5 279.375 C-116.52900391 278.48103516 -116.55800781 277.58707031 -116.58789062 276.66601562 C-116.62869789 272.43775497 -116.55068765 269.94968541 -114.421875 266.21484375 C-112.04410773 264.19041602 -111.18841083 263.67083938 -108.125 263.8125 C-104.1875 264.3125 -104.1875 264.3125 -102.25 265.625 C-100.46730558 268.4563382 -100.04285952 271.06066907 -99.87109375 274.32421875 C-99.82919922 275.08154297 -99.78730469 275.83886719 -99.74414062 276.61914062 C-99.70482422 277.40482422 -99.66550781 278.19050781 -99.625 279 C-99.58181641 279.79728516 -99.53863281 280.59457031 -99.49414062 281.41601562 C-99.38822632 283.38131447 -99.28737449 285.34688496 -99.1875 287.3125 C-96.24874401 288.781878 -93.27578331 288.44830463 -90.0546875 288.453125 C-88.5937346 288.47146791 -87.1327967 288.49103958 -85.671875 288.51171875 C-83.37441956 288.54055915 -81.07792099 288.5624967 -78.78027344 288.56298828 C-63.40427653 288.58627517 -63.40427653 288.58627517 -57.58227539 292.90332031 C-51.93008004 298.61388771 -51.06074854 305.19624824 -51.06965637 312.92070007 C-51.06895179 313.57128492 -51.06824721 314.22186976 -51.06752127 314.8921693 C-51.06621659 317.06445159 -51.07187843 319.2366607 -51.07739258 321.40893555 C-51.07763483 322.96978252 -51.07735715 324.53062964 -51.07659912 326.09147644 C-51.07549407 329.44993772 -51.07692284 332.80838532 -51.07996559 336.16684532 C-51.08360343 341.4838024 -51.07444782 346.80068854 -51.06217957 352.11763 C-51.06015764 353.01595242 -51.05813571 353.91427483 -51.05605251 354.83981913 C-51.05188394 356.6766479 -51.04768118 358.51347659 -51.04344499 360.3503052 C-51.01532836 372.72470828 -50.99515824 385.09895705 -51.01245117 397.47338867 C-51.02402757 405.82561589 -51.01436405 414.17752384 -50.98039359 422.5296939 C-50.96327693 426.94554661 -50.95689171 431.36082326 -50.976511 435.77667809 C-50.99481625 439.93436262 -50.98500927 444.0910571 -50.95425415 448.24865913 C-50.94791855 449.76832203 -50.9516684 451.28806834 -50.96665001 452.80767059 C-51.04877869 461.81156581 -50.47250808 469.3226321 -44.1875 476.3125 C-37.66221992 481.11974286 -31.18905544 482.46098824 -23.1875 481.3125 C-17.10725782 479.17315553 -12.62507761 474.71440767 -9.1875 469.3125 C-7.31991234 464.67802801 -6.90020721 460.50031155 -6.92578697 455.56201363 C-6.92179091 454.79701078 -6.91779485 454.03200793 -6.91367769 453.24382317 C-6.9026991 450.67754872 -6.90590532 448.11148972 -6.9090271 445.54519653 C-6.90402449 443.68798036 -6.8981488 441.83076636 -6.89147437 439.97355545 C-6.87565618 434.86779377 -6.87224268 429.7620871 -6.87082577 424.65630388 C-6.86713491 419.15122946 -6.85198099 413.64618531 -6.83821106 408.14112854 C-6.81592456 398.60247235 -6.80091962 389.06382691 -6.79084396 379.5251503 C-6.77626571 365.73378513 -6.75073127 351.94245742 -6.72251268 338.15111421 C-6.67702918 315.77620866 -6.64040375 293.40129652 -6.609375 271.02636719 C-6.57921029 249.28970391 -6.5448714 227.55305377 -6.50488281 205.81640625 C-6.50365181 205.1463643 -6.50242081 204.47632236 -6.5011525 203.78597611 C-6.48878562 197.05712712 -6.4763339 190.32827828 -6.46382002 183.59942957 C-6.35888499 127.1704715 -6.2682641 70.7414975 -6.1875 14.3125 C-7.82501221 15.23579102 -7.82501221 15.23579102 -9.49560547 16.17773438 C-10.10967255 16.52396851 -10.72373962 16.87020264 -11.35641479 17.22692871 C-21.10164278 23.00445325 -29.59768078 31.13255873 -37.74316406 38.93115234 C-39.02551618 40.15758039 -40.32047661 41.37079487 -41.6171875 42.58203125 C-74.84699676 74.45190169 -97.61673892 125.26288364 -99.29127502 171.15664673 C-99.34819272 174.38058749 -99.37739978 177.60375395 -99.3984375 180.828125 C-99.42647827 183.23698629 -99.45514249 185.64584038 -99.484375 188.0546875 C-99.5257697 191.82259121 -99.5626935 195.59035633 -99.58886719 199.35839844 C-99.61641945 203.01524847 -99.66225346 206.67150349 -99.7109375 210.328125 C-99.71419037 211.45526917 -99.71744324 212.58241333 -99.72079468 213.74371338 C-99.73736115 214.7954071 -99.75392761 215.84710083 -99.77099609 216.93066406 C-99.77908295 217.85171936 -99.7871698 218.77277466 -99.79550171 219.72174072 C-100.2725074 222.87432314 -101.32197587 224.74278274 -103.1875 227.3125 C-106.1875 229.3125 -106.1875 229.3125 -109.6875 229.1875 C-113.1875 228.3125 -113.1875 228.3125 -114.88198853 226.55300903 C-116.37708465 223.98713625 -116.56708556 222.53862624 -116.57568359 219.58935547 C-116.58964172 218.18272644 -116.58964172 218.18272644 -116.60388184 216.74768066 C-116.59796021 215.73524292 -116.59203857 214.72280518 -116.5859375 213.6796875 C-116.59016724 212.6232605 -116.59439697 211.5668335 -116.59875488 210.47839355 C-116.60516394 207.04778937 -116.58628869 203.61801997 -116.5625 200.1875 C-116.55784729 199.02357727 -116.55319458 197.85965454 -116.54840088 196.66046143 C-116.26510845 136.65954016 -99.46000168 81.67990766 -58.34375 36.69140625 C-56.39134564 34.53739491 -54.50472641 32.34222274 -52.625 30.125 C-49.1193081 26.11621337 -45.25551129 22.7364095 -41.1875 19.3125 C-40.2284375 18.46558594 -39.269375 17.61867188 -38.28125 16.74609375 C-12.56611689 -5.81417349 -12.56611689 -5.81417349 0 0 Z " fill="#000000" transform="translate(446.1875,7.6875)"/>
</svg>
