<?xml version="1.0" encoding="UTF-8"?>
<svg version="1.1" xmlns="http://www.w3.org/2000/svg" width="512" height="512">
<path d="M0 0 C7.28723734 6.0025572 12.61182147 9.22454462 22.17993164 9.2590332 C23.833041 9.26958488 23.833041 9.26958488 25.51954651 9.28034973 C27.29457802 9.28659615 27.29457802 9.28659615 29.10546875 9.29296875 C31.6321697 9.31617683 34.15886243 9.34029456 36.68554688 9.36523438 C40.65264314 9.40024609 44.61943842 9.42964208 48.58666992 9.44311523 C52.42663784 9.45869466 56.26573433 9.49897732 60.10546875 9.54296875 C61.27465347 9.54106033 62.4438382 9.53915192 63.64845276 9.53718567 C77.52683723 9.74077949 88.43991461 14.21072006 98.4140625 23.91015625 C101.04131837 26.83901037 103.16894537 29.99256646 105.234375 33.3359375 C105.89493896 34.40231445 105.89493896 34.40231445 106.56884766 35.49023438 C106.89933105 36.02712891 107.22981445 36.56402344 107.5703125 37.1171875 C108.41690178 36.25727455 108.41690178 36.25727455 109.28059387 35.37998962 C114.63829348 29.94166896 120.00589604 24.51340015 125.38449574 19.09575558 C128.14841091 16.31109131 130.90853377 13.5228864 133.65991211 10.72583008 C136.32232432 8.01950299 138.99479435 5.32347362 141.67410851 2.63388252 C142.68736269 1.61331795 143.69713083 0.58927834 144.7030735 -0.43849373 C156.39879378 -12.37748551 167.47470154 -20.05585819 184.4453125 -20.3203125 C197.22311343 -20.21385273 206.95208151 -16.45426441 216.5703125 -7.8828125 C226.8552471 3.07121635 230.22286662 14.86071438 229.875 29.6015625 C229.08211647 45.3150725 218.96626083 56.18359592 208.29956055 66.79199219 C207.40897949 67.68943649 206.51839844 68.5868808 205.60083008 69.51152039 C203.18821765 71.94186566 200.76636471 74.3627873 198.34200263 76.78140545 C196.3065668 78.81372157 194.27578301 80.85065594 192.2449134 82.88753343 C187.4491192 87.69730477 182.64566235 92.4993244 177.8371582 97.29638672 C172.90163371 102.22042531 167.97904012 107.15712292 163.06266564 112.10027575 C158.81573486 116.36945714 154.56098273 120.6307324 150.29998809 124.88587689 C147.76625743 127.41626047 145.23540835 129.94935129 142.71204185 132.49007416 C139.89577367 135.3248713 137.06332949 138.14297243 134.22924805 140.95996094 C133.41174576 141.7871312 132.59424347 142.61430145 131.75196838 143.46653748 C119.55345407 155.51244338 108.48714971 160.58967082 91.45588684 160.50486755 C90.15386076 160.51025309 88.85183468 160.51563863 87.51035327 160.52118737 C83.91649797 160.53558753 80.32287307 160.53141447 76.72900546 160.52402055 C72.84555536 160.51927788 68.96215431 160.53180816 65.07872009 160.54203796 C57.47987749 160.55920757 49.88111765 160.56007011 42.28226069 160.55482506 C36.10688869 160.55078008 29.93154111 160.5522308 23.75617027 160.55757332 C22.43675058 160.55869595 22.43675058 160.55869595 21.09067595 160.55984126 C19.30367813 160.56137276 17.51668033 160.56291111 15.72968253 160.56445623 C-1.01522214 160.57817365 -17.76008004 160.57274805 -34.50498364 160.56127102 C-49.82607219 160.55133092 -65.1470401 160.56429405 -80.46811005 160.58820521 C-96.20498921 160.6125802 -111.94181214 160.62220855 -127.67870981 160.61555248 C-136.5118726 160.6120578 -145.34494252 160.61430924 -154.17809105 160.63180351 C-161.69421174 160.64650513 -169.2101741 160.64718731 -176.72629162 160.6297326 C-180.56102628 160.62120491 -184.39547782 160.61911609 -188.23019791 160.63438416 C-192.38576702 160.65072515 -196.54064955 160.63612032 -200.69621277 160.61839294 C-201.9099182 160.62799795 -203.12362363 160.63760296 -204.37410802 160.64749902 C-210.49218527 160.59360464 -214.77759746 160.5543732 -219.4296875 156.1171875 C-222.17062364 152.56027799 -222.80612187 149.99267294 -222.81736755 145.5450592 C-222.82727219 144.43618851 -222.83717682 143.32731781 -222.84738159 142.18484497 C-222.84287994 140.97795013 -222.8383783 139.7710553 -222.83374023 138.52758789 C-222.84060349 137.2490242 -222.84746674 135.97046051 -222.85453796 134.65315247 C-222.87245999 131.1530844 -222.87130286 127.65326716 -222.86559558 124.15316701 C-222.86250222 121.22823202 -222.86859782 118.3033451 -222.87463433 115.37841696 C-222.88867487 108.47660242 -222.88712231 101.57491167 -222.87573242 94.6730957 C-222.86425215 87.55943826 -222.87832611 80.44615787 -222.9051289 73.33255011 C-222.92730035 67.21857873 -222.93392003 61.10472559 -222.92805248 54.99071687 C-222.92468505 51.34192051 -222.92708342 47.69336581 -222.94430351 44.04460335 C-222.9626725 39.97488733 -222.94857087 35.90590284 -222.93139648 31.83618164 C-222.94106445 30.63131104 -222.95073242 29.42644043 -222.96069336 28.18505859 C-222.90654309 22.06369324 -222.86797804 17.77226097 -218.4296875 13.1171875 C-214.67744289 10.16699635 -211.95201173 9.76014843 -207.23754883 9.84350586 C-206.00889603 9.85598862 -204.78024323 9.86847137 -203.51435852 9.8813324 C-202.86260462 9.89424253 -202.21085072 9.90715267 -201.53934669 9.92045403 C-199.48178718 9.9575712 -197.42547509 9.96983105 -195.36759949 9.97450256 C-189.51966902 9.98919607 -183.67291673 10.02389601 -177.82592773 10.1340332 C-174.24035823 10.19977934 -170.65733669 10.21589519 -167.07123375 10.20132637 C-165.06031941 10.20689663 -163.04977479 10.26563173 -161.03974915 10.32566833 C-153.78849203 10.26983143 -149.96876725 9.4647653 -144.74707031 4.24291992 C-143.29568815 2.54473999 -141.85519523 0.83714475 -140.4296875 -0.8828125 C-138.17353405 -2.90880398 -135.82279215 -4.73097866 -133.3671875 -6.5078125 C-132.42963623 -7.18855835 -132.42963623 -7.18855835 -131.47314453 -7.88305664 C-90.69906223 -36.47727909 -37.19440371 -31.33872499 0 0 Z M-123.4296875 26.1171875 C-124.01062699 26.66260445 -124.59156649 27.20802139 -125.19011021 27.76996613 C-129.43618536 32.11154474 -131.22892448 35.10378781 -131.30062866 41.20483398 C-131.27546173 42.07374268 -131.2502948 42.94265137 -131.22436523 43.83789062 C-131.22538742 44.77540161 -131.22640961 45.7129126 -131.22746277 46.67883301 C-131.22261656 49.75322047 -131.16831654 52.82457416 -131.11328125 55.8984375 C-131.10021449 58.03933083 -131.09025541 60.18024519 -131.08326721 62.32116699 C-131.05662683 67.93752522 -130.98793786 73.55260254 -130.91033936 79.16845703 C-130.83854399 84.90639928 -130.80672086 90.64454989 -130.77148438 96.3828125 C-130.69656401 107.62816486 -130.57719785 118.87256938 -130.4296875 130.1171875 C-101.88517792 130.16282323 -73.34067292 130.1982123 -44.79613399 130.21931816 C-41.42536856 130.22181954 -38.05460321 130.22440819 -34.68383789 130.22705078 C-34.01278574 130.2275754 -33.34173359 130.22810002 -32.65034653 130.22864054 C-21.78806652 130.2373406 -10.92580771 130.25310838 -0.06354027 130.27149309 C11.08406298 130.29020323 22.23165899 130.3011569 33.37927812 130.30536449 C39.63991305 130.30797312 45.90049993 130.31410966 52.16111946 130.32864761 C58.05350886 130.34221966 63.9458304 130.34641087 69.83823395 130.34340286 C72.00096188 130.34395319 74.16369207 130.34793284 76.32640648 130.35559845 C79.27990792 130.36555368 82.23315336 130.36315415 85.18666077 130.35769653 C86.04173424 130.36352222 86.89680772 130.3693479 87.77779251 130.37535012 C95.23086232 130.33814466 100.89503477 129.35312776 106.457901 124.03302002 C107.31209688 123.2250724 108.16629276 122.41712479 109.04637337 121.58469391 C109.87927328 120.77041679 110.71217319 119.95613968 111.5703125 119.1171875 C112.30571196 118.40766685 113.04111141 117.69814621 113.7987957 116.96712494 C116.00644288 114.81644213 118.19021548 112.64387385 120.36889648 110.46386719 C121.1848378 109.65128448 122.00077911 108.83870178 122.84144592 108.00149536 C125.50238149 105.34995852 128.15962576 102.69476218 130.81640625 100.0390625 C132.6781555 98.18053065 134.5399782 96.32207239 136.40187073 94.46368408 C140.28608051 90.58583225 144.16787102 86.70556965 148.04858398 82.82421875 C152.52710299 78.34509642 157.01120133 73.87161313 161.4978804 69.400666 C165.8335699 65.07963404 170.16370973 60.75308112 174.49177742 56.42441559 C176.3269932 54.59037965 178.16383028 52.75796456 180.00231743 50.92720795 C182.56547554 48.37383124 185.12223947 45.81421617 187.67749023 43.25292969 C188.43645599 42.49958344 189.19542175 41.74623718 189.97738647 40.97006226 C196.84509729 34.23427241 196.84509729 34.23427241 199.0078125 25.1796875 C198.85266575 20.44065955 197.81148282 17.70875461 194.5703125 14.1171875 C190.83032761 10.81720083 187.14689534 10.68330044 182.36328125 10.42578125 C174.75774121 12.3085513 168.70973186 19.7052463 163.38183594 25.11035156 C162.60680725 25.88830078 161.83177856 26.66625 161.03326416 27.46777344 C159.36361815 29.14498807 157.69628508 30.82450782 156.03105927 32.50611115 C153.39610564 35.16672134 150.75484093 37.82091963 148.11187744 40.47357178 C142.50904763 46.09918143 136.91408833 51.73257944 131.3203125 57.3671875 C124.8228642 63.91197933 118.32206426 70.45338391 111.81287384 76.9865036 C109.20965574 79.60269491 106.61252723 82.22483085 104.01556396 84.847229 C102.42440843 86.44564737 100.83297267 88.04378687 99.24121094 89.64160156 C98.52010132 90.37304382 97.7989917 91.10448608 97.05603027 91.85809326 C96.38896057 92.52530396 95.72189087 93.19251465 95.03460693 93.87994385 C94.45873714 94.46025486 93.88286736 95.04056587 93.28954697 95.63846207 C89.00085281 99.32719752 85.01862774 99.40687828 79.5480957 99.38842773 C78.33995461 99.39626785 78.33995461 99.39626785 77.10740662 99.40426636 C75.36029824 99.41449752 73.61315945 99.42028522 71.86602211 99.42214775 C69.09487891 99.42581595 66.32409215 99.44255714 63.55302429 99.46290588 C55.6748215 99.51826003 47.79656543 99.54892757 39.91821289 99.57348633 C35.09592881 99.58942336 30.27389571 99.61971123 25.45174217 99.65825081 C23.61988186 99.66985182 21.78797652 99.67583073 19.95607948 99.67593193 C17.38362315 99.6761255 14.81185116 99.69450307 12.23950195 99.71655273 C11.49268158 99.71197556 10.74586121 99.70739838 9.97640991 99.7026825 C3.71669822 99.78733947 -2.64712108 100.93297015 -7.6640625 104.87109375 C-8.16421875 105.46792969 -8.664375 106.06476563 -9.1796875 106.6796875 C-12.86428008 110.68541429 -15.38313716 111.93113747 -20.8671875 112.4296875 C-24.73708091 112.09022317 -27.06824724 110.9933402 -30.4296875 109.1171875 C-31.0896875 109.1171875 -31.7496875 109.1171875 -32.4296875 109.1171875 C-32.7390625 108.3334375 -33.0484375 107.5496875 -33.3671875 106.7421875 C-34.35843788 104.19388622 -34.35843788 104.19388622 -35.4296875 102.1171875 C-36.20626763 95.86635398 -35.34586 91.17410694 -31.4296875 86.1171875 C-30.99011719 85.54226563 -30.55054688 84.96734375 -30.09765625 84.375 C-24.47427212 77.96861302 -14.86455957 72.72373904 -6.4296875 71.1171875 C-4.14453406 71.01147889 -1.85662065 70.96127466 0.4309082 70.94360352 C1.11275177 70.9369165 1.79459534 70.93022949 2.49710083 70.92333984 C3.97411144 70.90932091 5.4511433 70.89741688 6.92818642 70.88739204 C9.2702518 70.87092388 11.61216046 70.84768279 13.95414734 70.82249451 C20.61184822 70.75188677 27.26961329 70.69170953 33.92749023 70.64038086 C38.00410406 70.60847773 42.08053692 70.56717387 46.1570034 70.52018547 C47.70581985 70.50423326 49.25467792 70.49188062 50.80355263 70.48327827 C52.97639831 70.47103778 55.14882346 70.44685238 57.3215332 70.42016602 C59.17208061 70.40470482 59.17208061 70.40470482 61.06001282 70.38893127 C66.35496045 69.97903207 70.33131112 69.1909887 74.3828125 65.6796875 C78.32110113 61.06626367 79.0157713 58.52700337 78.88671875 52.625 C78.41989233 48.92496837 77.0446767 46.85905053 74.5703125 44.1171875 C69.63474597 40.44715085 64.85337169 39.99898268 58.8371582 39.95947266 C57.70860916 39.94921051 56.58006012 39.93894836 55.41731262 39.92837524 C54.20581039 39.92107391 52.99430817 39.91377258 51.74609375 39.90625 C49.16470726 39.87817582 46.58332714 39.84951132 44.00195312 39.8203125 C39.94477734 39.77800221 35.88764102 39.74117473 31.83032227 39.71582031 C27.90619926 39.69064901 23.98249948 39.64221552 20.05859375 39.59375 C18.25652214 39.5888707 18.25652214 39.5888707 16.41804504 39.58389282 C6.38585916 39.43865429 -1.79735109 37.84294749 -9.9921875 31.9296875 C-10.54463135 31.53531494 -11.0970752 31.14094238 -11.66625977 30.73461914 C-14.93066174 28.3624522 -17.93070586 25.81650852 -20.8671875 23.0546875 C-50.03247394 -3.80525461 -95.43329503 -0.50846172 -123.4296875 26.1171875 Z M-192.4296875 40.1171875 C-192.4296875 69.8171875 -192.4296875 99.5171875 -192.4296875 130.1171875 C-181.8696875 130.1171875 -171.3096875 130.1171875 -160.4296875 130.1171875 C-160.4296875 100.4171875 -160.4296875 70.7171875 -160.4296875 40.1171875 C-170.9896875 40.1171875 -181.5496875 40.1171875 -192.4296875 40.1171875 Z " fill="#000000" transform="translate(252.4296875,351.8828125)"/>
<path d="M0 0 C10.13859394 6.1441821 17.49928386 13.97217893 22 25 C22.35835938 25.86625 22.71671875 26.7325 23.0859375 27.625 C24.29123598 32.07533285 24.32963797 36.22295266 24.3125 40.8125 C24.32861328 41.66392578 24.34472656 42.51535156 24.36132812 43.39257812 C24.36592951 49.43419333 23.24411408 54.39863011 21 60 C22.175625 60.0825 23.35125 60.165 24.5625 60.25 C44.8524286 62.60564187 65.19976478 71.31304397 83 81 C83.66725098 81.35707031 84.33450195 81.71414062 85.02197266 82.08203125 C101.36874338 90.85403621 115.99747351 101.35139714 129.67578125 113.921875 C131.27018692 115.34746125 132.91356137 116.71956716 134.59375 118.04296875 C136.72861308 119.77927785 138.42447525 121.46409265 140.1875 123.5625 C143.00616502 126.87030428 145.91413747 130.06879421 148.875 133.25 C157.74552797 143.00623878 165.17931439 153.74244699 172 165 C172.39832031 165.65677734 172.79664063 166.31355469 173.20703125 166.99023438 C191.3450409 197.30662192 202.7721644 232.57694304 204 268 C204.60473145 267.97905273 205.20946289 267.95810547 205.83251953 267.93652344 C208.59650771 267.85291055 211.36022913 267.80119946 214.125 267.75 C215.07632812 267.71648437 216.02765625 267.68296875 217.0078125 267.6484375 C222.84778913 267.56732671 226.49620977 267.87503324 231 272 C235.05630398 277.22259857 234.77397544 282.65340142 234 289 C231.82495098 293.59177016 229.54477327 295.83210772 225 298 C222.15359351 298.28391435 219.53005925 298.40495185 216.68653965 298.38031673 C215.84851141 298.38497665 215.01048316 298.38963657 214.14706013 298.3944377 C211.32619957 298.40643165 208.50581675 298.39697532 205.68495178 298.38768005 C203.64725829 298.39185104 201.60956712 298.39732726 199.57188028 298.40399987 C193.96233723 298.41850399 188.35294048 298.41419425 182.74338925 298.40683305 C176.69762027 298.40211596 170.65188361 298.41459826 164.60612488 298.42485046 C153.4434428 298.4410763 142.28080625 298.44347784 131.11811861 298.43854547 C120.80585093 298.43399103 110.49360066 298.43458406 100.18133354 298.44038582 C98.79889045 298.44114268 97.41644735 298.44189866 96.03400425 298.44265376 C93.95087306 298.44379894 91.86774188 298.44494881 89.7846107 298.44611301 C70.41354264 298.45682052 51.0424804 298.46154066 31.67141056 298.45364285 C30.94095898 298.45334567 30.2105074 298.4530485 29.45792093 298.45274232 C23.52586445 298.4502933 17.59380805 298.44768176 11.66175165 298.44505819 C-11.47967685 298.43495486 -34.62103279 298.44331176 -57.76245117 298.46655273 C-83.75382444 298.4926136 -109.74515403 298.50547643 -135.73654085 298.49836498 C-138.50686649 298.49764891 -141.27719213 298.49697452 -144.04751778 298.49632454 C-144.72965707 298.49615473 -145.41179637 298.49598492 -146.11460656 298.49580997 C-156.42030759 298.49350514 -166.72596813 298.50149269 -177.03166008 298.51461601 C-188.74927658 298.52951055 -200.46681433 298.53001752 -212.18443459 298.5125451 C-218.16588833 298.50400508 -224.1471604 298.50195864 -230.12860489 298.51719666 C-235.60053941 298.53096441 -241.07213527 298.52638298 -246.54404981 298.50695742 C-248.52716928 298.50317269 -250.51031537 298.50618987 -252.4934113 298.51656907 C-255.18291923 298.52964828 -257.8712425 298.51823704 -260.56069851 298.50057125 C-261.33605384 298.51022176 -262.11140917 298.51987227 -262.91026011 298.52981523 C-268.08295926 298.45974211 -271.01287879 297.26207184 -275 294 C-279.05630398 288.77740143 -278.77397544 283.34659858 -278 277 C-275.83283812 272.42488049 -273.59067987 270.05870695 -269 268 C-265.38772438 267.63754567 -261.81314237 267.7175369 -258.1875 267.8125 C-257.20845703 267.82603516 -256.22941406 267.83957031 -255.22070312 267.85351562 C-252.81323375 267.88874688 -250.40690436 267.93800735 -248 268 C-247.97421875 267.25621094 -247.9484375 266.51242187 -247.921875 265.74609375 C-245.89634252 226.75459351 -231.84093878 186.70246482 -209 155 C-208.37867188 154.10667969 -207.75734375 153.21335938 -207.1171875 152.29296875 C-199.07712271 140.91643983 -189.9958609 130.68882081 -180 121 C-179.18660156 120.1853125 -178.37320313 119.370625 -177.53515625 118.53125 C-149.52178665 90.5610443 -114.13915025 72.01278483 -76 62 C-74.78183594 61.66162109 -74.78183594 61.66162109 -73.5390625 61.31640625 C-69.95276077 60.34983794 -66.71911258 59.76755546 -63 60 C-63.21148682 59.46487793 -63.42297363 58.92975586 -63.64086914 58.37841797 C-65.79760248 52.51529376 -66.51437777 47.35149854 -66.4375 41.125 C-66.42847656 40.24658447 -66.41945312 39.36816895 -66.41015625 38.46313477 C-66.09222065 26.5306141 -61.87368422 17.96067072 -54 9 C-48.97994372 4.27781792 -43.38381745 0.60538778 -37 -2 C-36.13117188 -2.35707031 -35.26234375 -2.71414063 -34.3671875 -3.08203125 C-23.68802308 -5.99340438 -9.68698586 -5.48465707 0 0 Z M-33.875 33.125 C-35.56484251 37.44348642 -35.65960983 41.4267052 -35 46 C-32.83701163 50.40608743 -30.60319521 53.1987497 -26 55 C-20.95674616 55.68426057 -17.16923116 55.5739862 -12.5625 53.3125 C-9.20343988 50.28115306 -7.30644369 48.25860352 -6.68359375 43.66796875 C-6.41786348 37.95048191 -7.03152848 34.39749547 -11 30 C-14.83713196 26.61429533 -18.63401462 26.48708828 -23.5625 26.6484375 C-28.22526146 27.32095117 -30.85190292 29.69882331 -33.875 33.125 Z M-84 97 C-85.09441406 97.37898438 -86.18882812 97.75796875 -87.31640625 98.1484375 C-96.22795768 101.40689434 -104.6209875 105.57908138 -113 110 C-113.5995752 110.31308105 -114.19915039 110.62616211 -114.81689453 110.94873047 C-134.45291213 121.30107131 -152.63045142 136.12148262 -167 153 C-168.3125 154.41666667 -169.625 155.83333333 -170.9375 157.25 C-193.24968591 182.52241652 -207.55451939 214.56097406 -214.25 247.375 C-214.41322754 248.17059326 -214.57645508 248.96618652 -214.74462891 249.78588867 C-215.93210552 255.90474448 -216.42854148 261.71395631 -217 268 C-88.3 268 40.4 268 173 268 C170.4775093 247.15823761 170.4775093 247.15823761 165.62646484 227.07861328 C165.05530176 225.1834915 164.51983375 223.27770483 163.98828125 221.37109375 C155.47598159 193.04950195 138.79214868 165.94480942 117.4609375 145.46484375 C116 144 116 144 113.75 141.125 C109.87111014 136.36167271 104.81351115 132.76113937 100 129 C99.03449219 128.24203125 98.06898438 127.4840625 97.07421875 126.703125 C90.01374157 121.27918227 82.72702993 116.41973307 75 112 C74.31583008 111.6066748 73.63166016 111.21334961 72.92675781 110.80810547 C54.0273295 100.07494146 34.25250655 93.34337256 13 89 C11.90300781 88.76539062 10.80601562 88.53078125 9.67578125 88.2890625 C-21.35885382 82.57106565 -54.39884607 86.70119938 -84 97 Z " fill="#000000" transform="translate(278,4)"/>
</svg>
